<?xml version="1.0" standalone="no"?>
<!DOCTYPE svg PUBLIC "-//W3C//DTD SVG 20010904//EN"
 "http://www.w3.org/TR/2001/REC-SVG-20010904/DTD/svg10.dtd">
<svg version="1.0" xmlns="http://www.w3.org/2000/svg"
 width="512.000000pt" height="512.000000pt" viewBox="0 0 512.000000 512.000000"
 preserveAspectRatio="xMidYMid meet">

<g transform="translate(0.000000,512.000000) scale(0.100000,-0.100000)"
fill="#000000" stroke="none">
<path d="M2370 3860 c-359 -27 -610 -142 -610 -280 0 -121 182 -216 507 -265
116 -18 435 -25 538 -12 279 35 441 92 525 183 50 54 59 97 31 152 -37 73
-146 134 -312 176 -172 44 -452 63 -679 46z m482 -165 c197 -26 353 -77 353
-115 0 -37 -171 -91 -369 -115 -327 -41 -786 10 -902 100 -19 15 -19 15 4 35
45 38 235 85 412 103 100 10 400 6 502 -8z"/>
<path d="M2444 3180 c-231 -42 -426 -201 -516 -423 -55 -136 -62 -298 -17
-443 49 -159 200 -406 470 -763 183 -242 174 -231 185 -231 21 0 290 358 444
591 178 268 228 390 237 574 7 135 -8 201 -73 333 -107 219 -326 358 -579 367
-55 2 -123 0 -151 -5z"/>
</g>
</svg>
